<?xml version="1.0" standalone="no"?>
<!DOCTYPE svg PUBLIC "-//W3C//DTD SVG 20010904//EN"
 "http://www.w3.org/TR/2001/REC-SVG-20010904/DTD/svg10.dtd">
<svg version="1.0" xmlns="http://www.w3.org/2000/svg"
 width="500.000000pt" height="500.000000pt" viewBox="0 0 500.000000 500.000000"
 preserveAspectRatio="xMidYMid meet">
<metadata>
Created by potrace 1.11, written by Peter Selinger 2001-2013
</metadata>
<g transform="translate(0.000000,500.000000) scale(0.100000,-0.100000)"
fill="#000000" stroke="none">
<path d="M2300 4799 c-187 -22 -329 -53 -464 -104 -414 -155 -667 -435 -763
-845 -31 -135 -40 -381 -17 -481 36 -158 99 -271 279 -494 115 -143 148 -192
193 -286 52 -109 66 -171 65 -299 0 -312 -135 -505 -393 -564 -74 -17 -246
-19 -293 -4 -39 12 -55 17 -65 19 -75 20 -235 122 -291 185 -179 204 -129 455
153 752 59 62 70 77 84 121 16 46 1 96 -44 149 -97 114 -213 98 -369 -53 -200
-192 -340 -535 -337 -827 2 -239 92 -432 282 -611 234 -220 522 -341 790 -333
117 4 184 24 257 76 49 36 52 31 19 -27 -70 -121 -250 -323 -371 -414 -198
-150 -353 -178 -516 -93 -96 51 -153 34 -219 -64 -70 -104 -56 -199 42 -287
91 -81 151 -108 253 -109 96 -1 147 6 240 34 39 11 77 22 85 25 8 2 15 4 15 5
0 1 8 3 17 5 41 8 400 184 481 236 147 94 434 285 442 295 6 6 26 22 45 35 36
24 344 266 390 305 113 98 207 174 216 174 6 0 20 -8 32 -18 268 -227 366
-306 572 -460 190 -142 442 -310 573 -381 29 -16 77 -42 107 -59 78 -43 228
-108 331 -143 191 -65 350 -74 449 -26 87 42 154 114 167 177 23 110 -16 230
-86 267 -47 26 -83 22 -162 -15 -85 -40 -101 -44 -167 -44 -76 0 -164 29 -255
85 -96 58 -103 64 -217 177 -99 98 -160 173 -224 272 -46 73 -46 87 2 51 76
-59 132 -75 269 -78 116 -3 197 9 313 47 123 39 290 132 395 219 68 55 183
178 218 231 36 55 96 173 101 200 2 7 8 31 14 53 13 45 25 150 25 210 -1 263
-136 600 -314 785 -142 147 -258 188 -347 124 -114 -82 -129 -190 -38 -286 74
-80 121 -132 148 -169 83 -111 133 -235 137 -336 3 -71 -22 -172 -50 -202 -11
-11 -19 -24 -19 -29 0 -15 -88 -99 -144 -136 -143 -95 -264 -131 -411 -123
-124 7 -155 13 -229 43 -197 80 -300 268 -300 549 0 209 43 297 320 659 74 97
154 222 161 250 1 6 14 43 27 83 33 96 39 139 37 258 -3 190 -20 291 -77 457
-26 75 -101 225 -124 248 -3 3 -18 23 -35 45 -59 80 -173 184 -268 246 -120
79 -371 183 -484 202 -16 3 -48 10 -73 15 -25 6 -65 13 -90 16 -25 3 -72 8
-105 12 -80 9 -316 11 -385 3z m-173 -1866 c96 -77 108 -193 28 -282 -91 -101
-265 -71 -313 54 -28 71 -20 132 24 191 58 79 187 97 261 37z m954 23 c63 -26
104 -84 114 -158 15 -108 -77 -207 -193 -208 -135 0 -231 157 -168 278 44 85
158 125 247 88z"/>
</g>
</svg>
